# xmcd
# Track frame offsets:
# 150
# 16342
# 28872
# 40650
# 52900
# 66010
# 78337
# 89680
# 104625
# 115232
# 124377
# 135900
# 145800
# 157977
# 170950
# 183680
# 196382
#
# Disc length: 2727 seconds
# Revision: 0
# Processed by: cddbd v1.5.2PL0 Copyright (c) Steve Scherf et al.
# Submitted via: VisiTrax 2.10.3.257 - For more info visit www.synapsa.com
#
DISCID=ef0aa511
DTITLE=Johnny Ashcroft - They're a wird mob
DYEAR=2008
DGENRE=
TTITLE0=Litttle boy lost
TTITLE1=Moondyne Joe
TTITLE2=Big river
TTITLE3=Mrs swaggie joe
TTITLE4=The girl behind the bar
TTITLE5=Thunderbolt's lament
TTITLE6=Playground in my mind
TTITLE7=Kimberley way
TTITLE8=They're a wird mob
TTITLE9=The twilight bar in firsco
TTITLE10=Bushfire
TTITLE11=I;m falling in love with you
TTITLE12=Dry
TTITLE13=Fishers ghost
TTITLE14=It's the same old story
TTITLE15=On the fifth of may
TTITLE16=Bailing up the mail
EXTD=
EXTT0=
EXTT1=
EXTT2=
EXTT3=
EXTT4=
EXTT5=
EXTT6=
EXTT7=
EXTT8=
EXTT9=
EXTT10=
EXTT11=
EXTT12=
EXTT13=
EXTT14=
EXTT15=
EXTT16=
PLAYORDER=
